<?xml version="1.0" standalone="no"?>
<!DOCTYPE svg PUBLIC "-//W3C//DTD SVG 20010904//EN"
 "http://www.w3.org/TR/2001/REC-SVG-20010904/DTD/svg10.dtd">
<svg version="1.0" xmlns="http://www.w3.org/2000/svg"
 width="626.000000pt" height="626.000000pt" viewBox="0 0 626.000000 626.000000"
 preserveAspectRatio="xMidYMid meet">
<metadata>
Created by potrace 1.11, written by Peter Selinger 2001-2013
</metadata>
<g transform="translate(0.000000,626.000000) scale(0.100000,-0.100000)"
fill="#000000" stroke="none">
<path d="M3005 5143 c-91 -5 -259 -32 -366 -59 -346 -86 -642 -252 -903 -504
-185 -179 -310 -348 -416 -564 -479 -975 -101 -2145 864 -2671 400 -218 909
-288 1372 -190 606 128 1131 544 1400 1110 427 898 128 1982 -700 2537 -297
199 -613 309 -971 338 -116 9 -153 10 -280 3z m306 -63 c809 -80 1482 -637
1704 -1410 18 -63 40 -158 50 -210 22 -126 31 -418 16 -546 -80 -678 -487
-1253 -1096 -1549 -203 -99 -393 -155 -630 -186 -114 -15 -441 -6 -550 14
-418 79 -765 258 -1050 542 -330 329 -528 743 -575 1204 -50 499 103 1013 419
1410 85 107 250 267 356 346 389 291 884 432 1356 385z"/>
<path d="M2960 4630 c-308 -39 -598 -169 -827 -371 -80 -71 -170 -169 -155
-169 40 0 103 39 176 107 184 174 424 298 689 355 137 29 417 32 552 5 293
-60 536 -187 760 -398 45 -42 118 -79 131 -66 9 8 -115 135 -195 199 -203 164
-421 268 -669 318 -120 24 -348 34 -462 20z"/>
<path d="M2870 4144 c-273 -19 -591 -80 -805 -154 -53 -18 -127 -35 -180 -41
-120 -12 -199 -40 -283 -99 -147 -103 -239 -278 -261 -492 -40 -404 192 -810
534 -934 36 -13 91 -27 123 -30 46 -5 64 -13 92 -39 95 -89 336 -218 520 -279
146 -48 334 -85 470 -92 340 -18 816 142 1090 365 37 31 58 39 120 49 96 15
232 82 318 154 324 276 419 813 201 1142 -105 160 -236 236 -436 256 -53 5
-122 21 -174 39 -157 56 -386 107 -610 137 -109 14 -596 26 -719 18z m710
-169 c242 -32 591 -117 653 -159 27 -18 32 -29 35 -68 3 -47 -110 -1070 -129
-1166 -14 -68 -56 -117 -159 -185 -223 -146 -530 -247 -800 -264 -257 -16
-629 94 -895 264 -96 61 -132 98 -149 152 -9 25 -45 306 -82 624 -75 653 -75
621 5 656 156 67 518 141 786 161 160 12 599 3 735 -15z m-1737 -272 c3 -43
33 -311 66 -597 34 -285 61 -523 61 -527 0 -36 -155 47 -242 129 -228 217
-302 586 -170 847 51 102 113 161 210 201 31 13 60 24 63 24 3 0 9 -35 12 -77z
m2675 44 c64 -29 144 -108 181 -176 176 -331 5 -836 -333 -981 -68 -29 -79
-27 -72 13 13 74 126 1083 126 1128 0 49 0 49 28 43 15 -4 46 -16 70 -27z"/>
<path d="M1629 3241 c-41 -41 -41 -98 0 -143 25 -28 36 -33 76 -33 40 0 51 5
76 33 33 37 37 77 14 122 -19 37 -43 50 -95 50 -33 0 -48 -6 -71 -29z"/>
<path d="M4487 3244 c-53 -53 -39 -139 27 -171 86 -41 178 45 142 132 -19 44
-52 65 -102 65 -31 0 -48 -6 -67 -26z"/>
<path d="M1911 2240 c70 -100 204 -235 318 -321 189 -142 417 -240 656 -281
166 -28 419 -22 575 15 289 69 513 192 723 396 84 81 214 238 205 246 -2 3
-20 0 -39 -5 -26 -7 -50 -28 -88 -75 -221 -272 -544 -460 -896 -522 -121 -21
-342 -20 -470 2 -120 20 -304 79 -406 130 -198 99 -410 275 -519 431 -8 12
-26 24 -40 28 -14 4 -34 10 -44 13 -14 4 -8 -10 25 -57z"/>
</g>
</svg>
